# xmcd
#
# Track frame offsets: 
#        182
#        102410
#        116897
#        133405
#        148707
#        161132
#        179187
#
# Disc length: 2598 seconds
#
# Revision: 4
# Processed by: cddbd v1.5.2PL0 Copyright (c) Steve Scherf et al.
# Submitted via: ExactAudioCopyFreeDBPlugin 1.0
#
DISCID=740a2407
DTITLE=Various Artist - Today's Country
DYEAR=1994
DGENRE=Country
TTITLE0=Dance Mix Medley (DJ's Time out)
TTITLE1=Alan Jackson - Summertime blues
TTITLE2=Michelle Wright - One good man
TTITLE3=Blackhawk - Goodbye says it all
TTITLE4=Pam Tillis - When you walk in the room
TTITLE5=Radney Foster - Hammer and nails
TTITLE6=Michelle Wright - Safe in the arms of love
EXTD=ID3G: 2
EXTT0=Brooks and Dunn - Boot scootin' Boogie (Radio version)\t\nThe Trac
EXTT0=tors - Baby likes to rock it (Radio version]\nAlan Jackson - Cha
EXTT0=ttahoochee (Radio version]\nPam Tillis - Cleopatra, queen of den
EXTT0=ial (Radio version]\nBrooks and Dunn - Rock my world, little count
EXTT0=ry girl (Radio version)
EXTT1=
EXTT2=
EXTT3=
EXTT4=
EXTT5=
EXTT6=
PLAYORDER=
